<svg width="562" height="140" viewBox="0 0 562 140" fill="none" xmlns="http://www.w3.org/2000/svg">
<path d="M31 82.8V140H0V0H104.2V26H31V57H104.2V82.8H31ZM152.851 0V140H121.851V0H152.851ZM287.381 113.4V140H169.981V114.6L245.581 26.6H173.981V0H284.781V25.4L209.381 113.4H287.381ZM377.073 80.4V99.0025H345.873V80.8L293.673 0H329.673L362.473 53H363.673L396.473 0H429.673L377.073 80.4ZM472.898 89V140H441.898V0H514.098C548.898 0 561.698 9.79999 561.698 37V40.6C561.698 61.4 555.298 70.6 540.298 73V74.4C555.098 76.8 561.698 81.8 561.698 106.2V140H530.698V108.2C530.698 92.4 525.698 89 507.298 89H472.898ZM507.498 25.8H472.898V63.4H510.698C525.098 63.4 530.698 59 530.698 45.6V44.4C530.698 30.2 525.098 25.8 507.498 25.8Z" fill="white" style="fill:white;fill-opacity:1;"/>
<path d="M377.073 140H345.873V115.463H377.073V140Z" fill="white" style="fill:white;fill-opacity:1;"/>
</svg>
