<svg width="563" height="141" viewBox="0 0 563 141" fill="none" xmlns="http://www.w3.org/2000/svg">
<path d="M31.3721 83.0212V140.221H0.37207V0.221191H104.572V26.2212H31.3721V57.2212H104.572V83.0212H31.3721ZM153.223 0.221191V140.221H122.223V0.221191H153.223ZM287.753 113.621V140.221H170.353V114.821L245.953 26.8212H174.353V0.221191H285.153V25.6212L209.753 113.621H287.753ZM377.445 80.6212V99.2237H346.245V81.0212L294.045 0.221191H330.045L362.845 53.2212H364.045L396.845 0.221191H430.045L377.445 80.6212ZM473.27 89.2212V140.221H442.27V0.221191H514.47C549.27 0.221191 562.07 10.0212 562.07 37.2212V40.8212C562.07 61.6212 555.67 70.8212 540.67 73.2212V74.6212C555.47 77.0212 562.07 82.0212 562.07 106.421V140.221H531.07V108.421C531.07 92.6212 526.07 89.2212 507.67 89.2212H473.27ZM507.87 26.0212H473.27V63.6212H511.07C525.47 63.6212 531.07 59.2212 531.07 45.8212V44.6212C531.07 30.4212 525.47 26.0212 507.87 26.0212Z" fill="black" style="fill:black;fill-opacity:1;"/>
<path d="M377.445 140.221H346.245V115.684H377.445V140.221Z" fill="black" style="fill:black;fill-opacity:1;"/>
</svg>
